<svg xmlns="http://www.w3.org/2000/svg" xml:space="preserve" style="enable-background:new 0 0 48 48" viewBox="0 0 48 48"><defs><filter id="a" width="1" height="1" x="0" y="0" style="color-interpolation-filters:sRGB"><feColorMatrix result="colormatrix1" values="0.299 0.587 0.114 0 0 0.299 0.587 0.114 0 0 0.299 0.587 0.114 0 0 0 0 0 1 0"/></filter><filter id="b" width="1" height="1" x="0" y="0" style="color-interpolation-filters:sRGB"><feColorMatrix result="colormatrix1" values="0.299 0.587 0.114 0 0 0.299 0.587 0.114 0 0 0.299 0.587 0.114 0 0 0 0 0 1 0"/></filter><filter id="c" width="1" height="1" x="0" y="0" style="color-interpolation-filters:sRGB"><feColorMatrix result="colormatrix1" values="0.299 0.587 0.114 0 0 0.299 0.587 0.114 0 0 0.299 0.587 0.114 0 0 0 0 0 1 0"/></filter><filter id="d" width="1" height="1" x="0" y="0" style="color-interpolation-filters:sRGB"><feColorMatrix result="colormatrix1" values="0.299 0.587 0.114 0 0 0.299 0.587 0.114 0 0 0.299 0.587 0.114 0 0 0 0 0 1 0"/></filter></defs><path d="M17.154297 12.388672c-.610947.02026-1.227617.192033-1.800781.533203L2.5371094 20.380859c1.0187682-.356723 2.1893044-.281758 3.1972656.324219l5.695313 3.289063 7.767578-4.478516c1.834127-1.10266 2.466743-3.384623 1.375-5.21875-.758079-1.260962-2.073887-1.952768-3.417969-1.908203z" style="display:inline;opacity:.8;fill:#fff;stroke-width:1.09174;filter:url(#a)"/><path fill="#4285f4" d="M17.274867 35.619173c1.277338 0 2.652934-.731468 3.297062-1.921467 1.10266-1.834128.458532-4.214126-1.375595-5.218529L5.7351479 20.70597c-1.8341274-1.10266-4.214126-.458531-5.21852905 1.375596-1.1026599 1.834128-.45853192 4.214126 1.37559555 5.218529L15.3534 35.084219c.63321.360275 1.277339.534954 1.921467.534954z" style="display:inline;opacity:.7;fill:#fff;stroke-width:1.09174;filter:url(#b)"/><path d="m36.537109 23.984375-7.734375 4.494141c-1.834128 1.10266-2.466742 3.384622-1.375 5.21875.644128 1.189999 1.932197 1.921875 3.296875 1.921875.633211 0 1.277747-.184648 1.921875-.544922l13.115235-7.585938c-.503157.230881-1.047943.357422-1.576172.357422-.731467 0-1.37405-.184647-1.919922-.544922z" style="display:inline;fill:#fff;stroke-width:1.09174;filter:url(#c)"/><path fill="#0f9d58" d="M44.186319 27.845967c1.277338 0 2.652934-.731468 3.297063-1.921468 1.102659-1.834126.458531-4.214126-1.375596-5.218529l-13.450267-7.784123c-1.834128-1.102661-4.214127-.458532-5.21853 1.375595-1.102659 1.834127-.458532 4.214126 1.375596 5.218529l13.450267 7.784124c.545872.360275 1.19.545872 1.921467.545872z" style="display:inline;opacity:.9;fill:#fff;stroke-width:1.09174;filter:url(#d)"/></svg>